<?xml version="1.0" encoding="UTF-8"?>
<svg id="E_X_H_I_B_I_T_I_O_N" data-name="E  X  H  I   B   I   T  I  O  N" xmlns="http://www.w3.org/2000/svg" xmlns:xlink="http://www.w3.org/1999/xlink" viewBox="0 0 1494.1 1320.47">
  <defs>
    <style>
      .cls-1 {
        fill: url(#_Безымянный_градиент_201);
      }

      .cls-2 {
        fill: url(#_Безымянный_градиент_34);
      }

      .cls-3 {
        fill: url(#_Безымянный_градиент_70);
      }
    </style>
    <linearGradient id="_Безымянный_градиент_201" data-name="Безымянный градиент 201" x1="834.35" y1="858.9" x2="834.35" y2="136.9" gradientUnits="userSpaceOnUse">
      <stop offset="0" stop-color="#303030"/>
      <stop offset=".8" stop-color="#2c2c2c"/>
    </linearGradient>
    <radialGradient id="_Безымянный_градиент_70" data-name="Безымянный градиент 70" cx="1011.6" cy="661.22" fx="1011.6" fy="661.22" r="355.14" gradientTransform="translate(-76.45 88.02) rotate(-6.88) scale(1 1.06)" gradientUnits="userSpaceOnUse">
      <stop offset="0" stop-color="#994323"/>
      <stop offset=".93" stop-color="#c15a34"/>
    </radialGradient>
    <linearGradient id="_Безымянный_градиент_34" data-name="Безымянный градиент 34" x1="136.55" y1="655.88" x2="965.21" y2="655.88" gradientUnits="userSpaceOnUse">
      <stop offset="0" stop-color="#2c2c2c"/>
      <stop offset="1" stop-color="#c15a34"/>
    </linearGradient>
  </defs>
  <g>
    <path d="M389.41,1148.63v12.32h17.08v4.48h-17.08v12.77h18.31v4.7h-23.24v-38.98h23.24v4.7h-18.31Z"/>
    <path d="M475.03,1182.9l-10.98-16.02-10.81,16.02h-5.6l13.61-20.1-12.94-18.87h5.88l10.3,15.01,10.14-15.01h5.6l-12.94,19.1,13.61,19.88h-5.88Z"/>
    <path d="M553.04,1143.92v38.98h-4.93v-18.03h-20.94v18.03h-4.93v-38.98h4.93v16.35h20.94v-16.35h4.93Z"/>
    <path d="M597.9,1143.92h4.93v38.98h-4.93v-38.98Z"/>
    <path d="M690.69,1171.98c0,3.77-1.2,6.53-3.58,8.29-2.39,1.75-5.75,2.63-10.08,2.63h-13.66v-38.98h14.06c3.81,0,6.76.84,8.85,2.52s3.14,4.24,3.14,7.67c0,3.92-1.44,6.76-4.31,8.51,3.73,1.61,5.6,4.72,5.6,9.35ZM668.29,1148.63v12.04h8.51c2.58,0,4.43-.47,5.57-1.4,1.14-.93,1.71-2.58,1.71-4.93,0-2.17-.57-3.66-1.71-4.48-1.14-.82-3-1.23-5.57-1.23h-8.51ZM683.41,1176.85c1.31-.9,1.96-2.59,1.96-5.1s-.66-4.2-1.99-5.1c-1.33-.9-3.48-1.34-6.47-1.34h-8.62v12.88h8.74c2.95,0,5.08-.45,6.38-1.34Z"/>
    <path d="M749.1,1143.92h4.93v38.98h-4.93v-38.98Z"/>
    <path d="M823.02,1148.85h-11.76v-4.93h28.45v4.93h-11.76v34.05h-4.93v-34.05Z"/>
    <path d="M881.26,1143.92h4.93v38.98h-4.93v-38.98Z"/>
    <path d="M937.9,1181.05c-2.67-1.68-4.7-4.03-6.1-7.06-1.4-3.02-2.1-6.55-2.1-10.58s.7-7.56,2.1-10.58c1.4-3.02,3.43-5.38,6.1-7.06,2.67-1.68,5.89-2.52,9.66-2.52s6.99.84,9.66,2.52,4.7,4.03,6.1,7.06c1.4,3.02,2.1,6.55,2.1,10.58s-.7,7.56-2.1,10.58c-1.4,3.02-3.44,5.38-6.1,7.06-2.67,1.68-5.89,2.52-9.66,2.52s-6.99-.84-9.66-2.52ZM956.97,1174.86c2.09-2.82,3.14-6.64,3.14-11.45s-1.04-8.63-3.14-11.45c-2.09-2.82-5.23-4.23-9.41-4.23s-7.32,1.41-9.41,4.23c-2.09,2.82-3.14,6.64-3.14,11.45s1.04,8.63,3.14,11.45c2.09,2.82,5.23,4.23,9.41,4.23s7.32-1.41,9.41-4.23Z"/>
    <path d="M1040.24,1143.92v38.98h-4.93l-20.94-30.07v30.07h-4.93v-38.98h4.93l20.94,30.07v-30.07h4.93Z"/>
    <path d="M1090.08,1182.73c-2.35-.56-4.57-1.33-6.66-2.3v-5.32c2.46,1.34,4.75,2.33,6.86,2.97,2.11.64,4.19.95,6.24.95,2.58,0,4.57-.58,5.99-1.74s2.13-2.74,2.13-4.76c0-1.38-.39-2.54-1.18-3.47-.78-.93-1.77-1.68-2.97-2.24-1.2-.56-2.8-1.18-4.82-1.85-2.43-.82-4.38-1.6-5.85-2.35-1.48-.75-2.74-1.81-3.78-3.19-1.05-1.38-1.57-3.17-1.57-5.38,0-3.29,1.19-5.91,3.58-7.87s5.6-2.94,9.63-2.94,7.52.84,10.81,2.52v5.15c-3.7-2.09-7.3-3.14-10.81-3.14-2.58,0-4.59.51-6.05,1.54-1.46,1.03-2.18,2.44-2.18,4.23,0,1.23.37,2.26,1.12,3.08.75.82,1.66,1.48,2.74,1.99,1.08.5,2.61,1.11,4.59,1.82,2.46.82,4.48,1.62,6.05,2.41,1.57.78,2.9,1.92,4,3.42,1.1,1.49,1.65,3.42,1.65,5.77s-.52,4.34-1.57,6.08-2.54,3.08-4.48,4.03c-1.94.95-4.18,1.43-6.72,1.43-2.17,0-4.42-.28-6.78-.84Z"/>
  </g>
  <g>
    <g>
      <path d="M232.54,1044.49c0,13.25-4.2,22.95-12.59,29.11-8.39,6.17-20.19,9.24-35.4,9.24h-47.99v-136.9h49.37c13.38,0,23.73,2.95,31.08,8.85,7.34,5.9,11.01,14.88,11.01,26.95,0,13.77-5.05,23.74-15.15,29.9,13.11,5.64,19.67,16.59,19.67,32.85ZM153.86,962.47v42.29h29.9c9.05,0,15.57-1.64,19.57-4.92,4-3.28,6-9.05,6-17.31,0-7.6-2-12.85-6-15.74-4-2.88-10.52-4.33-19.57-4.33h-29.9ZM206.97,1061.6c4.59-3.15,6.88-9.11,6.88-17.9s-2.33-14.75-6.98-17.9c-4.66-3.15-12.23-4.72-22.72-4.72h-30.29v45.24h30.68c10.36,0,17.83-1.57,22.42-4.72Z"/>
      <path d="M184.55,1082.97h-48.12v-137.15h49.5c13.34,0,23.82,2.99,31.16,8.88,7.34,5.9,11.06,15,11.06,27.04,0,13.66-5.05,23.71-15,29.88,12.96,5.67,19.52,16.72,19.52,32.87,0,13.22-4.25,23.05-12.64,29.21-8.37,6.15-20.31,9.27-35.48,9.27ZM136.68,1082.72h47.87c15.11,0,27-3.1,35.33-9.22,8.32-6.11,12.54-15.87,12.54-29.01,0-16.13-6.59-27.14-19.59-32.73l-.22-.1.21-.13c10.01-6.11,15.08-16.13,15.08-29.79,0-11.97-3.69-21-10.97-26.85-7.29-5.86-17.72-8.82-31-8.82h-49.25v136.65ZM184.55,1066.45h-30.81v-45.49h30.42c10.47,0,18.13,1.6,22.79,4.74,4.67,3.16,7.04,9.22,7.04,18s-2.33,14.84-6.94,18h0c-4.59,3.15-12.16,4.74-22.49,4.74ZM153.99,1066.2h30.56c10.28,0,17.8-1.58,22.35-4.7h0c4.53-3.11,6.83-9.09,6.83-17.79s-2.33-14.69-6.93-17.8c-4.61-3.12-12.23-4.7-22.65-4.7h-30.17v44.99ZM183.76,1004.89h-30.02v-42.54h30.02c9.03,0,15.64,1.46,19.64,4.35,4.02,2.9,6.05,8.23,6.05,15.84,0,8.26-2.03,14.12-6.04,17.41-4.01,3.28-10.62,4.95-19.65,4.95ZM153.99,1004.64h29.77c8.97,0,15.53-1.65,19.49-4.89,3.95-3.24,5.95-9.03,5.95-17.21,0-7.53-2-12.79-5.95-15.63-3.96-2.86-10.52-4.3-19.5-4.3h-29.77v42.04Z"/>
    </g>
    <g>
      <path d="M460.69,1082.85l-27.73-53.7h-33.44v53.7h-17.31v-136.9h46.42c16.39,0,28.58,3.44,36.58,10.33,8,6.88,12,16.95,12,30.19,0,9.83-2.16,18.16-6.49,24.98-4.33,6.82-10.69,11.67-19.08,14.55l29.9,56.84h-20.85ZM451.35,1006.83c4.79-4,7.18-10.79,7.18-20.36,0-8.78-2.39-14.98-7.18-18.59-4.79-3.61-12.36-5.41-22.72-5.41h-29.11v50.35h29.31c10.23,0,17.73-2,22.52-6Z"/>
      <path d="M481.75,1082.97h-21.13l-.03-.07-27.7-53.63h-33.24v53.7h-17.56v-137.15h46.54c16.34,0,28.68,3.48,36.67,10.36,7.99,6.88,12.04,17.07,12.04,30.29,0,9.82-2.19,18.24-6.51,25.05-4.3,6.77-10.69,11.67-19.01,14.56l29.93,56.9ZM460.77,1082.72h20.57l-29.87-56.79.14-.05c8.33-2.86,14.72-7.74,19.01-14.5,4.29-6.76,6.47-15.15,6.47-24.91,0-13.14-4.02-23.27-11.95-30.1-7.94-6.83-20.22-10.3-36.5-10.3h-46.29v136.65h17.06v-53.7h33.64l.03.07,27.7,53.63ZM428.83,1012.95h-29.43v-50.6h29.24c10.34,0,18,1.83,22.79,5.43,4.8,3.62,7.23,9.9,7.23,18.69,0,9.57-2.43,16.45-7.22,20.45h0c-4.79,4-12.39,6.03-22.6,6.03ZM399.64,1012.7h29.18c10.15,0,17.7-2.01,22.44-5.97h0c4.73-3.96,7.13-10.77,7.13-20.26,0-8.7-2.4-14.92-7.13-18.49-4.74-3.57-12.36-5.38-22.64-5.38h-28.99v50.1Z"/>
    </g>
    <g>
      <path d="M619.64,945.95h17.31v136.9h-17.31v-136.9Z"/>
      <path d="M637.08,1082.97h-17.56v-137.15h17.56v137.15ZM619.77,1082.72h17.06v-136.65h-17.06v136.65Z"/>
    </g>
    <g>
      <path d="M887.96,964.04c10.75,12.07,16.13,28.85,16.13,50.35s-5.38,38.29-16.13,50.35c-10.75,12.07-26.29,18.1-46.62,18.1h-46.22v-136.9h46.22c20.32,0,35.86,6.03,46.62,18.1ZM874.68,1052.46c7.15-9.25,10.72-21.93,10.72-38.06s-3.57-28.82-10.72-38.06c-7.15-9.24-17.8-13.87-31.96-13.87h-30.29v103.85h30.29c14.16,0,24.81-4.62,31.96-13.87Z"/>
      <path d="M841.34,1082.97h-46.35v-137.15h46.35c20.26,0,35.98,6.1,46.71,18.14h0c10.72,12.04,16.16,29,16.16,50.44s-5.44,38.41-16.16,50.44c-10.73,12.04-26.44,18.14-46.71,18.14ZM795.24,1082.72h46.1c20.19,0,35.85-6.07,46.52-18.05,10.68-11.98,16.1-28.9,16.1-50.27s-5.42-38.28-16.1-50.27h0c-10.68-11.98-26.33-18.05-46.52-18.05h-46.1v136.65ZM842.72,1066.45h-30.42v-104.1h30.42c14.13,0,24.92,4.68,32.06,13.92,7.13,9.23,10.75,22.06,10.75,38.14s-3.62,28.91-10.75,38.14h0c-7.14,9.23-17.93,13.92-32.06,13.92ZM812.55,1066.2h30.17c14.05,0,24.77-4.65,31.86-13.82h0c7.1-9.18,10.69-21.96,10.69-37.98s-3.6-28.8-10.69-37.98c-7.09-9.17-17.81-13.82-31.86-13.82h-30.17v103.6Z"/>
    </g>
    <g>
      <path d="M1035.5,977.32c4.98-10.69,12.36-18.98,22.13-24.88,9.77-5.9,21.54-8.85,35.31-8.85,7.87,0,15.27.95,22.23,2.85,6.95,1.9,13.11,4.49,18.49,7.77l-.2,19.47h-.79c-5.11-4.46-11.18-7.97-18.19-10.52-7.02-2.56-14.39-3.84-22.13-3.84-15.34,0-26.78,4.95-34.32,14.85-7.54,9.9-11.31,23.38-11.31,40.42s3.7,30.29,11.11,40.13c7.41,9.83,18.59,14.75,33.54,14.75,6.16,0,11.8-.82,16.92-2.46,5.11-1.64,9.57-3.96,13.38-6.98v-29.31h-28.91v-15.15h46.22v53.5c-8.13,5.38-15.83,9.41-23.11,12.1s-15.51,4.03-24.68,4.03c-13.38,0-24.82-2.95-34.32-8.85-9.51-5.9-16.69-14.16-21.54-24.78-4.85-10.62-7.28-22.95-7.28-36.98s2.49-26.58,7.47-37.27Z"/>
      <path d="M1091.16,1085.33c-13.34,0-24.91-2.98-34.39-8.87-9.49-5.89-16.75-14.24-21.58-24.84-4.84-10.59-7.29-23.04-7.29-37.03s2.52-26.67,7.49-37.33h0c4.97-10.66,12.43-19.05,22.18-24.94,9.74-5.88,21.64-8.87,35.37-8.87,7.83,0,15.32.96,22.26,2.86,6.92,1.9,13.15,4.51,18.52,7.78l.06.04v.07s-.2,19.6-.2,19.6h-.96l-.04-.03c-5.08-4.43-11.19-7.96-18.16-10.5-6.97-2.54-14.4-3.83-22.08-3.83-15.23,0-26.74,4.98-34.22,14.8-7.49,9.83-11.28,23.4-11.28,40.34s3.73,30.29,11.09,40.05c7.35,9.76,18.6,14.7,33.44,14.7,6.13,0,11.81-.83,16.88-2.45,5.05-1.62,9.52-3.95,13.29-6.92v-29.12h-28.91v-15.4h46.47v53.69l-.06.04c-8.1,5.36-15.89,9.43-23.14,12.11-7.26,2.68-15.58,4.04-24.73,4.04ZM1092.93,943.71c-13.68,0-25.54,2.97-35.24,8.83-9.7,5.86-17.13,14.21-22.08,24.83h0c-4.95,10.62-7.46,23.14-7.46,37.22s2.44,26.37,7.27,36.93c4.82,10.55,12.05,18.87,21.49,24.73,9.44,5.86,20.97,8.83,34.26,8.83,9.12,0,17.41-1.35,24.64-4.02,7.21-2.66,14.96-6.72,23.03-12.05v-53.31h-45.97v14.9h28.91v29.49l-.05.04c-3.8,3.01-8.31,5.37-13.42,7-5.1,1.64-10.8,2.46-16.95,2.46-14.92,0-26.24-4.98-33.64-14.8-7.39-9.81-11.14-23.33-11.14-40.2s3.81-30.62,11.33-40.5c7.53-9.89,19.11-14.9,34.42-14.9,7.71,0,15.17,1.29,22.17,3.84,6.98,2.54,13.1,6.08,18.2,10.51h.62l.19-19.28c-5.33-3.24-11.52-5.84-18.4-7.72-6.92-1.89-14.38-2.85-22.19-2.85Z"/>
    </g>
    <g>
      <path d="M1293.23,962.47v43.27h59.99v15.74h-59.99v44.85h64.32v16.52h-81.63v-136.9h81.63v16.52h-64.32Z"/>
      <path d="M1357.68,1082.97h-81.88v-137.15h81.88v16.77h-64.32v43.02h59.99v15.99h-59.99v44.6h64.32v16.77ZM1276.05,1082.72h81.38v-16.27h-64.32v-45.1h59.99v-15.49h-59.99v-43.52h64.32v-16.27h-81.38v136.65Z"/>
    </g>
  </g>
  <g>
    <path class="cls-1" d="M804.01,708.38h60.68v150.52h-60.68v-150.52ZM804.01,136.9v487.47h60.68V136.9h-60.68Z"/>
    <polygon class="cls-3" points="1049.37 624.37 1049.37 136.9 988.69 136.9 988.69 858.9 1049.37 858.9 1049.37 687.39 1357.55 687.39 1357.55 624.37 1049.37 624.37"/>
    <rect class="cls-2" x="136.55" y="624.37" width="828.65" height="63.02"/>
  </g>
</svg>